PathFileType	4	(X/Y/Z)	Patient4_TMGait_0pt4_01_right_12.trc.trc
DataRate	CameraRate	NumFrames	NumMarkers	Units	OrigDataRate	OrigDataStartFrame	OrigNumFrames
70.351758793970	70.351758793970	4	33	mm	70.351758793970	18	       141
Frame#	Time	Sacral			L.Shoulder			Chest			R.Shoulder			Neck			R.ASIS			L.ASIS			R.Thigh.Superior			R.Thigh.Lateral			R.Thigh.Inferior			R.Patella			L.Thigh.Superior			L.Thigh.Lateral			L.Thigh.Inferior			L.Patella			L.Shank.Superior			L.Shank.Lateral			L.Shank.Inferior			R.Shank.Superior			R.Shank.Lateral			R.Shank.Inferior			R.Heel			R.Midfoot.Superior			R.Midfoot.Lateral			R.Toe			L.Heel			L.Midfoot.Lateral			L.Midfoot.Superior			L.Toe			L.Elbow			L.Wrist			R.Elbow			R.Wrist			
		X1	Y1	Z1	X2	Y2	Z2	X3	Y3	Z3	X4	Y4	Z4	X5	Y5	Z5	X6	Y6	Z6	X7	Y7	Z7	X8	Y8	Z8	X9	Y9	Z9	X10	Y10	Z10	X11	Y11	Z11	X12	Y12	Z12	X13	Y13	Z13	X14	Y14	Z14	X15	Y15	Z15	X16	Y16	Z16	X17	Y17	Z17	X18	Y18	Z18	X19	Y19	Z19	X20	Y20	Z20	X21	Y21	Z21	X22	Y22	Z22	X23	Y23	Z23	X24	Y24	Z24	X25	Y25	Z25	X26	Y26	Z26	X27	Y27	Z27	X28	Y28	Z28	X29	Y29	Z29	X30	Y30	Z30	X31	Y31	Z31	X32	Y32	Z32	X33	Y33	Z33	

18	15.531642857143	806.688939271331	1005.911713226209	446.243307331672	1020.369135605408	1421.717738486237	261.523446155360	1100.018569437996	1358.852134010451	436.777153764123	1000.813832134185	1444.615835665506	596.227580370806	996.252428926263	1493.177163225495	412.514103091026	1026.506292759551	944.915837339406	582.642110863984	1039.611004082360	965.374421558797	303.062680683924	1094.882077370749	763.870844408598	555.159107339788	1049.122732036213	646.341527599133	630.884758077372	1132.805858073141	602.556717805207	548.786188843533	1164.015660193697	521.753585120193	566.367572406681	1042.740093911229	736.901909763206	337.081071113694	933.763487720477	636.308373569015	271.596832742282	996.387451610646	547.282768770315	338.610626709359	983.559499999049	482.304899868209	348.552731715263	955.136439397753	414.087881796337	341.016672715845	860.540817772531	303.530534251193	291.372451878047	905.714924222705	192.054425844797	366.295806347649	1148.458153857299	435.602657033731	578.784023690045	1098.874117386175	324.011515744061	649.088684659741	1163.913013459329	235.868708835001	594.921607078253	1068.371646635760	48.886588143749	577.821279411643	1234.848908833139	122.235693272587	605.283090038902	1158.465504042201	46.075594757749	644.340876575882	1360.367715342047	84.203473450021	619.808459916730	772.038563624679	38.683881612777	412.738502491492	844.904577297791	35.402160534400	331.096988746803	928.911912235082	95.630959995861	356.674421246054	1057.396022531474	41.151693976155	327.937007860302	1042.330325782683	1071.902467188919	141.432562411137	1214.350041807424	873.321719772839	146.567666408126	867.726610925242	1131.201495698489	723.472343690592	871.757985387669	872.678730415576	760.291368990955	
19	15.545857142857	807.521920251312	1004.636892279894	447.779142436367	1020.773905273631	1421.031919365897	264.244357432497	1100.178441502563	1357.934535304539	439.555956319380	1000.537764928741	1443.285979268716	598.914171350364	996.528741604762	1492.219054297741	415.323157985751	1027.144027797041	943.543075502526	584.703592726983	1040.292413519120	964.036566748730	305.042735244287	1094.302484387164	761.389994596282	557.320053428397	1046.853508813454	643.746425853099	631.902546783977	1130.769824365044	600.066513892649	549.993501568053	1161.289646714391	520.177537995851	566.482437254692	1042.260594420930	735.786243649599	338.603262563792	932.588106258029	635.954239805858	272.669374704340	994.250561193633	546.449392814267	339.653479846980	980.832720568906	481.384645596647	349.520498407524	951.984591335048	413.359270595970	341.766087268835	856.525707693171	303.590716144798	291.730730932502	900.711159551151	191.630801665143	366.504598298764	1147.235345919447	433.943281475272	578.715365556008	1099.133055118494	321.176691423521	648.054406805886	1166.004113158952	234.393255661121	593.690974826700	1073.599781450626	46.290267827083	575.382620121563	1239.122943149217	121.206367220862	603.365149489042	1163.442236952556	44.587958945991	642.217194686521	1365.003741632412	84.764434743541	618.326200476568	766.293783735625	38.664418013860	412.699710095272	839.148800430950	35.383490773339	331.058225959626	923.122293412671	95.594098056788	356.717319224857	1051.602801224896	41.109712324232	327.968575017522	1042.277539300117	1071.029547611061	144.420204813800	1213.833755985442	872.010658283597	149.963117025657	867.196209153351	1129.445539471682	724.510348768075	871.004535420809	870.674439735571	760.099428381050	
20	15.560071428571	808.641890056207	1003.198489757644	449.575938920923	1020.931988235171	1420.398095328216	267.191314710406	1100.286418532470	1357.120936134288	442.492137322976	1000.208159761115	1441.884192756094	601.844008398041	996.625512391866	1491.242447868789	418.406215303444	1028.206033201549	942.143729582467	586.844680209225	1041.163808108711	962.680294766481	307.192720293798	1094.575598101642	759.075228668676	559.550623350827	1045.246474679555	641.139931512051	632.705911701932	1129.586192590232	597.777929618072	551.175490391606	1159.195063924020	518.362746955760	566.576059841222	1042.145979466169	734.618121014633	340.150193813559	931.714589220962	635.559550907891	273.913934404692	992.521237096985	545.547986353844	340.757822081367	978.517109352215	480.331311409289	350.592616139920	949.168179530274	412.528462748523	342.593846405323	852.646042193260	303.676909489739	292.189778858110	895.759339962160	191.122614282930	366.742228440505	1145.950986033296	431.824246890474	578.500203876626	1098.239971583756	318.398065867460	646.747023563776	1166.083353377498	232.449727252918	592.261892705827	1075.070574756742	44.386085892995	572.797424677799	1240.180575914661	119.401948985422	601.282029477237	1164.546624025952	43.242251785158	640.071769932644	1366.041914634754	83.524615408888	616.900510865428	760.537869421531	38.584547734382	412.653084537740	833.394370725844	35.324586992962	331.021657598548	917.323798028363	95.552386142464	356.763615679815	1045.820516400158	41.059647021853	327.992848815358	1041.843065174539	1070.170848028060	147.630026150822	1212.753775182013	870.548029446424	153.393539597097	867.401166990320	1127.262591170863	725.833149351824	871.718597577509	868.217236230413	759.969123705764	
21	15.574285714286	810.030814346948	1001.628739837375	451.638478327471	1020.857226743642	1419.824164736795	270.357182855389	1100.353752605192	1356.429779012692	445.581613388089	999.839817046088	1440.441355605147	605.013896815301	996.552423696837	1490.267232653614	421.756598180184	1029.691628597622	940.752897521879	589.057750405137	1042.234115238301	961.375980685320	309.507031259801	1095.708176996890	756.959312469260	561.803302612364	1044.354578187910	638.601113413255	633.311531500762	1129.270099092015	595.741096331199	552.308864582410	1157.771783347686	516.377615592651	566.623611307529	1042.376998251359	733.402980375292	341.707953617844	931.114852050240	635.127309297833	275.341132225511	991.189916505106	544.577721205699	341.931295487804	976.623236477065	479.134473657753	351.764446641919	946.675091337388	411.594913383419	343.511022523704	848.893469738900	303.795430075143	292.775055787595	890.855614083147	190.534412990507	367.021099987267	1144.741943621394	429.339182291220	578.161558330137	1096.501338717299	315.692692635685	645.299622186263	1164.513128392755	230.070736341826	590.717495461588	1073.268953065170	43.052743824010	570.264312270730	1238.499601394312	116.873057383445	599.116866334842	1162.331824711534	41.984224100833	638.037956246704	1364.041564657840	80.616698395567	615.525652298329	754.765586690626	38.437807009517	412.600310160493	827.642812504192	35.213589517652	330.993426567032	911.522777447552	95.503053253521	356.815231965572	1040.060676193766	41.001709282865	328.005170316632	1041.024136502518	1069.334899639794	151.061936241279	1211.104364440758	868.944356552632	156.821127286867	868.292750960913	1124.719808940333	727.456715092782	873.872954417836	865.390934649396	759.956305357003	
